<svg id="Layer_1" data-name="Layer 1" xmlns="http://www.w3.org/2000/svg" viewBox="0 0 85.64 82.71"><defs><style>.cls-1{fill:#fffef2;fill-rule:evenodd;}</style></defs><path class="cls-1" d="M78.24,19.64A33.25,33.25,0,0,0,70.7,16.3,93.15,93.15,0,0,0,24,14.07,76.22,76.22,0,0,0,7.22,19.86c-4,1.9-5.23,8-3.39,12.57,1.63,4.08,5.11,4.12,8.71,3.76,2.47-.26,5-.45,7.42-.84,4.35-.7,6.16-3.35,5.42-7.62-.32-1.85-.56-3.71-.83-5.46,9.93-3.49,28.66-3.36,36.36.1-.23,3-1.41,6.29-.5,8.87,2,5.69,7.82,4,12.21,4.86,3.32.62,6.77.71,8.84-2.81C83.93,29.08,82.41,22.2,78.24,19.64ZM13.54,23.2c-3,1.42-4.9,3.44-4.5,7.07.07.55-.69,1.32-1.25,1.73-.17.12-1.46-.71-1.42-1,.3-2.37.19-5.09,1.38-7,1.41-2.24,3.77-4.3,7.78-3.09C14.65,22,14.23,22.87,13.54,23.2ZM43,43.1a8,8,0,0,0-8,7.82,7.83,7.83,0,1,0,15.65,0A8.21,8.21,0,0,0,43,43.1Zm15.78-6.69c-2.74-1.66-4.48-3.52-4.93-6.58C53.46,27.35,52,26.91,49.72,27c-4.56.14-9.14.18-13.7,0-2.54-.11-4,.77-4.36,3.22-.47,3-2.21,4.62-4.78,6.19-9.8,6-15.27,15-16.75,26.35-.7,5.37,1.51,7.8,6.91,7.84,8.58.06,17.16,0,25.74,0v0c8.3,0,16.6,0,24.91,0,6.61,0,8.78-2.48,7.66-9.05C73.53,50.76,68.19,42.1,58.77,36.41Zm-3.2,16A12.74,12.74,0,0,1,42.73,63.84,12.89,12.89,0,0,1,39.15,38.6,12.32,12.32,0,0,1,42.89,38a13,13,0,0,1,12.76,13A11.73,11.73,0,0,1,55.57,52.38Z"/></svg>