<svg id="Layer_1" data-name="Layer 1" xmlns="http://www.w3.org/2000/svg" xmlns:xlink="http://www.w3.org/1999/xlink" viewBox="0 0 269.68 269.68"><defs><style>.cls-1{fill:none;}.cls-2{fill:#3e3d40;}.cls-3{fill:#fffef2;}.cls-4{fill:#c83927;}.cls-5{fill:#645faa;}.cls-6{clip-path:url(#clip-path);}.cls-7{fill:#00ae6f;fill-rule:evenodd;}</style><clipPath id="clip-path"><path class="cls-1" d="M198.63,133.1c0,4.81-28.78,8.7-64.27,8.7s-64.27-3.89-64.27-8.7c0,0-15.15-84.89,64.27-84.89C210.36,48.21,198.63,133.1,198.63,133.1Z"/></clipPath></defs><circle class="cls-2" cx="134.84" cy="134.84" r="134.84"/><circle class="cls-3" cx="134.84" cy="134.84" r="90.27"/><path class="cls-4" d="M198.63,133.1c0,4.81,5.35,72-64.27,72-71,0-64.27-67.15-64.27-72"/><path class="cls-5" d="M198.63,133.1c0,4.81,5.35,72-64.27,72-71,0-64.27-67.15-64.27-72"/><ellipse cx="134.36" cy="133.1" rx="64.27" ry="8.7"/><g class="cls-6"><path class="cls-7" d="M199.19,107.94a48.14,48.14,0,0,0-7.8-9.29,137,137,0,0,0-60.32-33.24,111.78,111.78,0,0,0-25.86-3.2c-6.53-.1-12.06,7.12-12.61,14.41-.49,6.44,4.08,8.76,9.07,10.61,3.43,1.26,6.84,2.63,10.35,3.7,6.19,1.89,10.31-.43,12.1-6.56.77-2.64,1.65-5.26,2.43-7.74,15.39,1.82,40,14.13,48,23.69-2.23,3.78-5.94,7.4-6.41,11.4-1.05,8.81,7.71,10.4,13,14.33,4,3,8.49,5.32,13.5,2C200.6,124.1,203,114,199.19,107.94ZM111.41,70.71c-5-.08-8.7,1.37-10.52,6.43-.28.77-1.77,1.3-2.79,1.48-.29,0-1.47-1.88-1.23-2.24,1.94-2.94,3.57-6.61,6.35-8.32,3.32-2,7.77-3.24,12.29.94C113.67,69.8,112.53,70.73,111.41,70.71Zm26,45.38a11.77,11.77,0,0,0-15.64,5.15,11.52,11.52,0,1,0,20.7,10.1A12.09,12.09,0,0,0,137.42,116.09Zm25.19,1.39c-2.55-4-3.64-7.55-2.26-11.89,1.11-3.52-.6-5.08-3.6-6.43-6.11-2.77-12.19-5.69-18.08-8.9-3.28-1.8-5.76-1.57-7.85,1.42-2.54,3.63-5.91,4.67-10.32,5.09-16.84,1.58-29.9,9.9-39.21,24-4.4,6.65-3.06,11.28,4,14.83,11.29,5.65,22.66,11.15,34,16.7l0,0c11,5.38,21.93,10.79,32.92,16.13,8.75,4.26,13.2,2.41,16-7C172.81,146,171.36,131.1,162.61,117.48Zm-14.58,19a18.75,18.75,0,0,1-24.39,6.81,19,19,0,0,1-8.24-25.95c3.7-7.18,12-11,19.87-9.71a18.28,18.28,0,0,1,5.3,1.68A19.09,19.09,0,0,1,149,134.8C148.7,135.39,148.38,136,148,136.51Z"/></g><path class="cls-3" d="M127.22,166.07H129l6,5.43,5.95-5.43h1.74v11.1l-3.87,3.55V173.2l-3.82,3.49-3.85-3.47v7.5h-3.87Z"/><path class="cls-3" d="M134.3,193.26a19.87,19.87,0,1,1,19.86-19.81A19.79,19.79,0,0,1,134.3,193.26Zm0-35.72a15.85,15.85,0,1,0,15.85,15.85A15.82,15.82,0,0,0,134.28,157.54Z"/><path class="cls-3" d="M66.53,218.56l-2.69-2.13,2.13-2.7,8.17,6.44L72,222.88l-2.75-2.17-6.06,7.66-2.72-2.15Z"/><path class="cls-3" d="M82.56,225.54l7.25,3.84-1.34,2.53-4.18-2.21-1,1.9,3.71,2-1.37,2.58-3.7-2-1.14,2.15L85,238.54l-1.33,2.51-7.25-3.83Z"/><path class="cls-3" d="M99.29,233.33l3.3,1-2.94,9.26,4.53,1.44-1.06,3.32-7.83-2.5Z"/><path class="cls-3" d="M117.16,238l8.13,1.06-.37,2.85-4.7-.62-.27,2.13,4.15.54-.38,2.9-4.15-.55-.32,2.41,4.69.61-.37,2.81-8.12-1.06Zm5-3.34,2.39.31-2.15,2.36-1.68-.22Z"/><path class="cls-3" d="M135.56,239.51l8.26-.36.12,2.85-4.8.21.1,2.14,4.24-.18.13,2.93-4.24.19.23,5.25-3.46.16Z"/><path class="cls-3" d="M162.85,249.29a6.6,6.6,0,1,1,4.85-7.95A6.57,6.57,0,0,1,162.85,249.29Zm-2.31-9.47a3.15,3.15,0,1,0,3.8,2.31A3.15,3.15,0,0,0,160.54,239.82Z"/><path class="cls-3" d="M175.17,231.54l1.27-.61,8.33,2.9-2.7-5.61,3.12-1.51,5.73,11.89-1.28.62-8.33-2.92,2.72,5.63-3.13,1.5Z"/><path class="cls-3" d="M206.73,228.17a6.6,6.6,0,1,1,1.2-9.24A6.57,6.57,0,0,1,206.73,228.17Zm-6-7.72a3.15,3.15,0,1,0,4.42.57A3.15,3.15,0,0,0,200.77,220.45Z"/><path class="cls-3" d="M27.19,103.54l-.82,2.71-2.72-.83.82-2.7-2.72-.83.84-2.74,2.71.83.83-2.7,2.72.83-.83,2.7,2.71.82-.84,2.74Z"/><path class="cls-3" d="M33.86,87.52l-.08,0,1.3-2.5a1.58,1.58,0,1,0-.67-2.14l-2,3.91-6.59-3.41,3.92-7.56,2.54,1.32-2.61,5,1.62.84L32,81.57a4.41,4.41,0,1,1,1.88,6Z"/><path class="cls-3" d="M48.72,66.63,44.9,71.48,42.64,69.7l-2.73-9.08,2.21-2.81,6.11,4.81,1.54-1.95L52,62.44l-1.54,2,2.25,1.77L51,68.4Zm-2.25-1.78-3-2.38L44.8,67Z"/><path class="cls-3" d="M72,42.46a4.42,4.42,0,1,1,2.56-4.23l.55,7.85L72.37,47.9Zm-.5-4.85a1.59,1.59,0,1,0-2.63,1.77,1.59,1.59,0,0,0,2.63-1.77Z"/><path class="cls-3" d="M97.36,20.28l3.38-1.05,4,12.89-3.39,1.05Z"/><path class="cls-3" d="M114,16.14l3.5-.56,2.13,13.33-3.5.56Z"/><path class="cls-3" d="M131,23.37v-.09l2.82,0a1.58,1.58,0,1,0,1.61-1.55l-4.41-.07.12-7.42,8.51.14-.05,2.86L134,17.19,134,19l1.56,0A4.41,4.41,0,1,1,131,23.37Z"/><path class="cls-3" d="M151.29,24.52a4.61,4.61,0,0,1,1.12-2.25l5-5.81,3.25.62-3.52,4.08a4.44,4.44,0,1,1-5.87,3.36Zm5.92,1.12A1.59,1.59,0,0,0,156,23.79a1.58,1.58,0,1,0,1.26,1.85Z"/><path class="cls-3" d="M174.63,30.41a4.43,4.43,0,1,1,4.94-.33L173.44,35l-3.06-1.19Zm3.69-3.19a1.58,1.58,0,0,0-2.95-1.15,1.58,1.58,0,1,0,2.95,1.15Z"/><path class="cls-3" d="M189.83,37.83l2.47-4a4.42,4.42,0,0,1,7.5,4.69l-2.47,4a4.42,4.42,0,0,1-7.5-4.67Zm5.1,3.15,2.44-3.93a1.58,1.58,0,0,0-2.68-1.69l-2.45,4A1.58,1.58,0,1,0,194.93,41Z"/><path class="cls-3" d="M209.73,51.93a4.43,4.43,0,1,1,4.71,1.48L207,55.8l-2.42-2.21Zm4.59-1.63A1.59,1.59,0,0,0,212,48.16a1.56,1.56,0,0,0,.1,2.24A1.57,1.57,0,0,0,214.32,50.3Z"/><path class="cls-3" d="M226.93,66.43l.4,0,.75-.14.32-.24a1.65,1.65,0,0,0,.27-2.21,1.57,1.57,0,0,0-2.22-.29l-1.75-2.31A4.47,4.47,0,1,1,230,68.43a4.53,4.53,0,0,1-2.47.85l-4.46.15,2.29,3-2.28,1.73-5.63-7.46Z"/><path class="cls-3" d="M232.57,81.14l4.18-2.09A4.42,4.42,0,0,1,240.69,87l-4.17,2.08a4.42,4.42,0,0,1-4-7.91Zm2.69,5.36,4.14-2.07a1.58,1.58,0,0,0-1.4-2.84l-4.15,2.07a1.59,1.59,0,0,0,1.41,2.84Z"/><path class="cls-3" d="M240.8,100.08l.09,0,.77,2.71a1.58,1.58,0,1,0,2,1.1l-1.21-4.25,7.14-2,2.32,8.19-2.75.78-1.55-5.45-1.75.49.43,1.51a4.41,4.41,0,1,1-5.45-3Z"/><circle class="cls-3" cx="43.76" cy="202.66" r="2.39"/><circle class="cls-3" cx="224.1" cy="202.66" r="2.39"/></svg>