<?xml version="1.0" encoding="utf-8"?>
<!-- Generator: Adobe Illustrator 25.4.1, SVG Export Plug-In . SVG Version: 6.00 Build 0)  -->
<svg version="1.1" id="Layer_1" xmlns="http://www.w3.org/2000/svg" xmlns:xlink="http://www.w3.org/1999/xlink" x="0px" y="0px"
	 viewBox="0 0 525.25 652.49" style="enable-background:new 0 0 525.25 652.49;" xml:space="preserve">
<style type="text/css">
	.st0{fill:#FFFEF2;}
	.st1{fill:#FFFFFF;}
	.st2{fill:#414042;}
	.st3{fill:#665FAD;}
	.st4{fill:#00AE6F;}
	.st5{fill:#FABC9E;}
	.st6{fill:#86D0D8;}
	.st7{fill:#0078C0;}
	.st8{fill:#E63621;}
	.st9{fill:#665FAC;}
	.st10{fill:#86D2DA;}
	.st11{fill:#645FAA;}
	.st12{fill:#C83927;}
	.st13{fill:#FDB525;}
	.st14{fill:#00AD6F;}
	.st15{fill:#83CFD7;}
	.st16{fill:#635FA8;}
	.st17{fill:none;}
	.st18{fill:#FBB324;}
	.st19{fill:#C63827;}
	.st20{fill:#0077C0;}
	.st21{fill:#EABC9E;}
</style>
<path class="st5" d="M74.51,111.23c77.55-107.28,112.13,74.54,223.98,155.4s258.63,30.13,181.08,137.41s-231.09,128.7-342.95,47.84
	S-3.04,218.51,74.51,111.23z"/>
<g>
	<g>
		<path class="st20" d="M392.12,154.52c-0.02,5.8-0.98,11.95-4.54,16.71c-2.73,3.65-6.83,5.81-11.27,6.57
			c-4.42,0.75-9.35,0.33-13.4-1.68c-4.33-2.15-7.32-6.03-8.85-10.57c-4.1-12.17-0.11-25.9,6.02-36.66
			c2.34-4.11,5.24-8.64,9.22-11.37c0.65-0.45,1.35-0.85,2.01-1.05c0.6-0.18,1.03-0.23,1.48-0.11c1.38,0.36,2.7,1.37,3.85,2.42
			c3.92,3.6,6.85,8.34,9.26,13.04c2.89,5.65,5.12,11.83,5.92,18.15C392.02,151.48,392.12,153,392.12,154.52
			c0.01,1.5,2.33,1.5,2.33,0c-0.03-6.86-1.95-13.61-4.65-19.87c-2.41-5.58-5.54-11.03-9.61-15.58c-2.28-2.55-5.77-6.03-9.54-4.82
			c-1.92,0.61-3.58,1.95-5.02,3.33c-1.94,1.86-3.61,4.02-5.12,6.24c-3.75,5.51-6.61,11.73-8.45,18.13
			c-1.92,6.7-2.54,13.77-1.17,20.65c1.08,5.44,3.68,10.57,8.2,13.91c4.07,3.01,9.28,4.1,14.26,3.91c4.97-0.19,9.86-1.74,13.61-5.09
			c4.39-3.91,6.44-9.66,7.16-15.36c0.23-1.81,0.32-3.63,0.33-5.45C394.46,153.02,392.13,153.02,392.12,154.52z"/>
	</g>
	<path class="st20" d="M368.56,179.14c2-0.37,3.93-0.95,5.22-2.08c0.65-0.54,1.14-1.2,1.45-1.93c0.32-0.73,0.52-1.52,0.57-2.37
		c0.1-1.69-0.12-3.5-0.61-5.29c-0.42-1.82-1.09-3.58-1.8-5.39c-1.41-3.64-3.19-7.3-4.25-11.4c-0.53-2.04-0.87-4.25-0.52-6.49
		c0.21-1.11,0.59-2.21,1.23-3.12c0.62-0.93,1.47-1.64,2.38-2.14l0.15,0.18c-0.76,0.64-1.4,1.42-1.83,2.31
		c-0.44,0.89-0.67,1.86-0.72,2.85c-0.11,1.99,0.4,3.96,1.02,5.85c1.3,3.79,3.17,7.37,4.69,11.11c0.76,1.87,1.4,3.8,1.83,5.78
		c0.41,1.98,0.62,4.04,0.28,6.07c-0.16,1.01-0.51,2-1.04,2.88c-0.53,0.88-1.28,1.63-2.16,2.17c-1.77,1.08-3.89,1.33-5.89,1.25
		L368.56,179.14z"/>
</g>
<path class="st20" d="M349.98,218.7c-11.57-26.81-26.62-52.96-46.16-74.79c-10.95-12.24-27.69-28.95-45.83-23.16
	c-9.24,2.95-17.19,9.37-24.09,15.98c-9.33,8.94-17.34,19.3-24.59,29.97c-18,26.46-31.76,56.31-40.58,87.06
	c-9.23,32.19-12.19,66.13-5.64,99.15c5.19,26.14,17.66,50.73,39.39,66.81c19.52,14.44,44.55,19.7,68.48,18.8
	c23.85-0.9,47.34-8.38,65.35-24.43c21.09-18.79,30.91-46.4,34.4-73.77c1.11-8.68,1.56-17.42,1.59-26.18
	C372.17,281.17,362.95,248.77,349.98,218.7z M339.31,394.38c-11.19,14.97-27.19,24.71-44.91,29.5c0.65-1.79,0.9-3.75,0.79-5.71
	c-0.09-1.58-0.37-3.14-0.7-4.68c-0.01-0.18-0.02-0.35-0.03-0.53c-0.45-6.25-1.22-12.49-2.14-18.7c0.12-6.78-0.78-13.57-2.14-20.17
	c-2.04-9.52-5.11-18.8-8.77-27.77c-7.29-17.96-16.26-35.14-22.52-53.34c-3.01-9.08-5.42-18.56-4.91-28.1
	c0.28-4.74,1.38-9.44,3.48-13.69c2.08-4.26,5.15-8.01,8.79-11.09l-0.72-0.85c-4.36,2.4-8.41,5.82-11.41,10.27
	c-3.09,4.39-4.92,9.68-5.91,15.01c-1.69,10.77-0.07,21.38,2.47,31.18c5.09,19.72,13.66,37.3,20.42,54.76
	c3.44,8.7,6.65,17.16,8.66,25.88c2.34,8.58,3.42,17.29,2.93,25.39c-0.24,4.07-1.23,7.86-2.74,11.36c-1.48,3.52-3.8,6.68-6.94,9.27
	c-2.4,2.11-5.25,3.82-8.4,5.22c-15.13-0.1-30.43-3.14-43.73-9.75c-0.93-0.46-1.84-0.96-2.75-1.46c-0.79-1.09-1.56-2.2-2.29-3.33
	c-0.35-0.54-0.67-1.1-1.01-1.66c-0.12-0.42-0.22-0.85-0.28-1.3c-0.02-0.19-0.07-0.38-0.14-0.55c-1.01-5.53-5.42-10.45-8.73-14.78
	c-2.62-3.43-5.14-6.94-7.55-10.52c-2.23-3.31-4.5-6.7-5.96-10.44c-1.52-3.88-1.99-7.98-2.28-12.11c-0.29-4.19-0.61-8.36-1.32-12.51
	c-1.45-8.45-4.3-16.49-7.89-24.25c-3.1-6.69-6.54-13.23-9.98-19.75c2.37-40.09,17.29-80.19,36.62-114.12
	c11.25-19.75,25.16-41.51,44.28-54.59c3.14-2.15,6.5-4.07,9.65-5.03c2.86-0.88,4.97-1.08,7.1-0.53c6.64,1.73,12.99,6.56,18.49,11.62
	c18.82,17.31,32.91,40.04,44.47,62.63c13.89,27.14,24.6,56.81,28.42,87.17c0.91,7.23,1.38,14.51,1.41,21.8
	C361.03,341.99,356.41,371.53,339.31,394.38z"/>
</svg>
