<?xml version="1.0" encoding="utf-8"?>
<!-- Generator: Adobe Illustrator 25.4.1, SVG Export Plug-In . SVG Version: 6.00 Build 0)  -->
<svg version="1.1" id="Layer_1" xmlns="http://www.w3.org/2000/svg" xmlns:xlink="http://www.w3.org/1999/xlink" x="0px" y="0px"
	 viewBox="0 0 525.25 652.49" style="enable-background:new 0 0 525.25 652.49;" xml:space="preserve">
<style type="text/css">
	.st0{fill:#FFFEF2;}
	.st1{fill:#FFFFFF;}
	.st2{fill:#414042;}
	.st3{fill:#665FAD;}
	.st4{fill:#00AE6F;}
	.st5{fill:#FABC9E;}
	.st6{fill:#86D0D8;}
	.st7{fill:#0078C0;}
	.st8{fill:#E63621;}
	.st9{fill:#665FAC;}
	.st10{fill:#86D2DA;}
	.st11{fill:#645FAA;}
	.st12{fill:#C83927;}
	.st13{fill:#FDB525;}
	.st14{fill:#00AD6F;}
	.st15{fill:#83CFD7;}
	.st16{fill:#635FA8;}
	.st17{fill:none;}
	.st18{fill:#FBB324;}
	.st19{fill:#C63827;}
	.st20{fill:#0077C0;}
	.st21{fill:#EABC9E;}
</style>
<g>
	<path class="st12" d="M376.69,546.84c-11.25,4.93-13.08-83.9-24.52-88.37c-11.44-4.47-42.72,75.64-54.16,71.18
		c-11.44-4.47,19.83-84.58,8.39-89.05c-11.44-4.47-42.72,75.64-54.16,71.18c-11.44-4.47,19.83-84.58,8.39-89.05
		c-11.44-4.47-42.72,75.64-54.16,71.18c-11.44-4.47,19.83-84.58,8.39-89.05c-11.44-4.47-42.72,75.64-54.16,71.18
		c-11.44-4.47,19.83-84.58,8.39-89.05c-11.44-4.47-42.72,75.64-54.17,71.17c-11.44-4.47,19.83-84.58,8.39-89.05
		c-11.45-4.47-42.72,75.64-54.17,71.17c-11.45-4.47,19.83-84.58,8.38-89.05c-11.45-4.47-72.97,59.64-77.91,48.39
		c-4.93-11.25,83.9-13.08,88.37-24.52c4.47-11.44-75.64-42.72-71.18-54.16c4.47-11.44,84.58,19.83,89.05,8.39
		c4.47-11.44-75.64-42.72-71.18-54.16c4.47-11.44,84.58,19.83,89.05,8.39c4.47-11.44-75.64-42.72-71.18-54.16
		c4.47-11.44,84.58,19.83,89.05,8.39c4.47-11.44-75.64-42.72-71.18-54.16c4.47-11.44,84.58,19.83,89.05,8.39
		c4.47-11.44-75.64-42.72-71.17-54.17c4.47-11.44,84.58,19.83,89.05,8.39c4.47-11.45-75.64-42.72-71.17-54.17
		c4.47-11.45,84.58,19.83,89.05,8.38c4.47-11.45-59.64-72.97-48.39-77.91c11.25-4.93,13.08,83.9,24.52,88.37
		c11.44,4.47,42.72-75.64,54.16-71.18c11.44,4.47-19.83,84.58-8.39,89.05c11.44,4.47,42.72-75.64,54.16-71.18
		c11.44,4.47-19.83,84.58-8.39,89.05c11.44,4.47,42.72-75.64,54.16-71.18c11.44,4.47-19.83,84.58-8.39,89.05
		c11.44,4.47,42.72-75.64,54.16-71.18c11.44,4.47-19.83,84.58-8.39,89.05c11.44,4.47,42.72-75.64,54.17-71.17
		c11.44,4.47-19.83,84.58-8.39,89.05c11.45,4.47,42.72-75.64,54.17-71.17c11.45,4.47-19.83,84.58-8.38,89.05
		c11.45,4.47,72.97-59.64,77.91-48.39c4.93,11.25-83.9,13.08-88.37,24.52c-4.47,11.44,75.64,42.72,71.18,54.16
		c-4.47,11.44-84.58-19.83-89.05-8.39c-4.47,11.44,75.64,42.72,71.18,54.16c-4.47,11.44-84.58-19.83-89.05-8.39
		c-4.47,11.44,75.64,42.72,71.18,54.16c-4.47,11.44-84.58-19.83-89.05-8.39c-4.47,11.44,75.64,42.72,71.18,54.16
		c-4.47,11.44-84.58-19.83-89.05-8.39c-4.47,11.44,75.64,42.72,71.17,54.17c-4.47,11.44-84.58-19.83-89.05-8.39
		c-4.47,11.45,75.64,42.72,71.17,54.17c-4.47,11.45-93.24,0.73-91.62,12.91C330,522.39,387.95,541.9,376.69,546.84z"/>
</g>
<g>
	<g>
		<g>
			<path class="st13" d="M244.18,388.91c-27.62-13.27-58.91-28.32-74.06-49.05c-11.95-15.71-19.34-54.3-7.32-101.91
				c7.38-29.23,30.28-55.82,54.45-63.24c4.18-1.28,8.36-1.93,12.42-1.93c15.4,0,28.72,9.21,40.83,19.17
				c11.24-4.01,22.1-6.04,32.25-6.04c19.84,0,37.43,7.71,52.26,22.91c24.05,24.54,26.65,66.33,7.12,114.68
				c-21.2,52.48-61.52,64.31-115.53,65.93h0L244.18,388.91z M227.04,185.25c-3.86,0-7.73,1.23-11.84,3.77
				c-34.81,21.52-43.19,41.26-46.47,54.24c-19.78,78.43,8.83,101.57,78.83,135.65c78.84-3.33,101.85-38.08,112.29-63.93
				c19.02-47.12,2.09-81.2-9.7-97.33c-1.4-1.91-8.47-9.64-9.98-11.18c-8.45-8.66-17.99-12.7-30-12.7c-10.13,0-22.51,2.88-38.93,9.06
				l-2.96,1.1l-2.37-2.1c-7.98-2.44-14.37-6.12-20-9.36C239.21,188.6,233.41,185.25,227.04,185.25z"/>
			<path class="st1" d="M229.67,172.8c14.43,0,27.19,7.95,40.81,19.16c12.06-4.29,22.78-6.04,32.26-6.04
				c25.91,0,42.61,13.03,52.24,22.9c24.4,24.9,26.41,66.87,7.12,114.65c-22.11,54.73-65.52,64.42-115.51,65.91l-2.41-0.51
				c-29.4-14.13-59.35-28.93-74.05-49.04c-10.67-14.03-20.14-51.1-7.31-101.89c7.62-30.16,30.69-55.94,54.43-63.22
				C221.56,173.41,225.68,172.8,229.67,172.8 M247.55,378.93c45.17-1.91,92-13.65,112.33-63.94c16.17-40.04,7.26-74.15-9.7-97.35
				c-1.38-1.89-8.38-9.55-9.98-11.19c-8.52-8.73-18.07-12.7-30.02-12.7c-10.73,0-23.38,3.21-38.94,9.06l-2.95,1.1l-2.34-2.1
				c-17.52-5.35-27.18-16.58-38.9-16.58c-3.65,0-7.5,1.09-11.85,3.78c-17.93,11.09-39.77,27.7-46.48,54.25
				C149.18,320.7,176.12,344.16,247.55,378.93 M229.67,172.75v0.05l0-0.02L229.67,172.75L229.67,172.75
				c-4.07,0-8.25,0.65-12.43,1.93c-11.63,3.57-23.45,11.75-33.28,23.04c-4.92,5.65-9.23,11.92-12.8,18.62
				c-3.7,6.95-6.52,14.22-8.39,21.59c-3.04,12.03-4.98,23.93-5.77,35.39c-0.71,10.25-0.5,20.13,0.61,29.37
				c1.9,15.7,6.44,29.25,12.48,37.18c6.62,9.06,16.93,17.82,31.52,26.78c12.72,7.81,26.79,14.71,42.54,22.28l2.42,0.51
				c14.28-0.43,25.73-1.45,36.05-3.23c12.32-2.12,22.85-5.32,32.19-9.77c21.6-10.28,37.08-27.6,47.32-52.95
				c4.79-11.86,8.31-23.5,10.46-34.58c2.14-11.03,2.94-21.58,2.37-31.35c-0.57-9.83-2.53-18.94-5.83-27.06
				c-3.35-8.26-8.1-15.57-14.13-21.72c-6.31-6.47-12.86-11.43-20.03-15.16c-9.87-5.15-20.72-7.75-32.25-7.75
				c-10.15,0-21,2.03-32.25,6.03c-7.77-6.39-14.15-10.77-20.09-13.77C243.24,174.51,236.46,172.75,229.67,172.75L229.67,172.75z
				 M247.56,378.88c-20.69-10.07-34.2-17.54-45.18-24.97c-12.99-8.79-21.98-17.32-28.32-26.84c-6.71-10.09-10.39-21.48-11.27-34.83
				c-0.89-13.52,1.06-29.53,5.97-48.96c1.59-6.28,4.13-12.37,7.57-18.1c3.06-5.11,6.91-10.08,11.45-14.8
				c9.32-9.66,20.12-16.8,27.44-21.32c4.1-2.54,7.97-3.77,11.82-3.77c6.37,0,12.16,3.34,18.88,7.21c5.63,3.25,12.01,6.92,20,9.37
				l2.33,2.09l0.02,0.02l0.03-0.01l2.95-1.1c16.43-6.18,28.79-9.06,38.92-9.06c12.01,0,21.53,4.03,29.98,12.69
				c1.51,1.54,8.58,9.27,9.98,11.18c4.4,6.02,8.08,12.53,10.94,19.36c3.08,7.35,5.21,15.09,6.32,22.98
				c2.52,17.8-0.03,36.29-7.57,54.97c-4.85,12-11.5,22.4-19.76,30.93c-7.52,7.76-16.62,14.2-27.06,19.17
				c-9.26,4.41-19.94,7.8-31.72,10.1C271.16,377.13,260.13,378.35,247.56,378.88L247.56,378.88z"/>
		</g>
	</g>
	<g>
		<g>
			<path class="st13" d="M240.74,288.28c-1.91-0.75,30.94-23.21,18.3-89.5c-1.08-5.65,20.7-6.31,20.87-0.54
				c1.72,66.07-26.34,86.85-29.54,88.98C247.41,289.21,243.81,289.48,240.74,288.28z"/>
		</g>
	</g>
	<path class="st13" d="M169.32,242.49c0,0,6.01-21.11,18.11-22.78c12.09-1.67,24.92,0.61,24.55-14.06s14.82-18.07,22.81-15.88
		c7.99,2.19,7.01-2.63,7.01-2.63l-27.47-3.48l-27.61,16.76l-14.48,20.48l-7.14,24.33L169.32,242.49z"/>
</g>
</svg>
